<?xml version="1.0" encoding="UTF-8"?>
<svg version="1.1" xmlns="http://www.w3.org/2000/svg" width="30" height="30"  viewBox="0 0 48 48">
<path d="M0 0 C3.15204981 1.39347376 5.26171773 3.02485079 7.671875 5.4765625 C8.66767578 6.48203125 8.66767578 6.48203125 9.68359375 7.5078125 C10.36550781 8.20648438 11.04742187 8.90515625 11.75 9.625 C12.44738281 10.33140625 13.14476563 11.0378125 13.86328125 11.765625 C15.58012488 13.50598703 17.29211832 15.25084981 19 17 C18.34 18.32 17.68 19.64 17 21 C13.10082032 19.38462556 10.28706228 16.72075127 7.25 13.875 C6.74339844 13.40707031 6.23679687 12.93914063 5.71484375 12.45703125 C4.47280859 11.30873459 3.23588506 10.15491328 2 9 C-1.89917968 10.61537444 -4.71293772 13.27924873 -7.75 16.125 C-8.50990234 16.82689453 -8.50990234 16.82689453 -9.28515625 17.54296875 C-10.52719141 18.69126541 -11.76411494 19.84508672 -13 21 C-14.32 20.34 -15.64 19.68 -17 19 C-15.60652624 15.84795019 -13.97514921 13.73828227 -11.5234375 11.328125 C-10.51796875 10.33232422 -10.51796875 10.33232422 -9.4921875 9.31640625 C-8.79351562 8.63449219 -8.09484375 7.95257812 -7.375 7.25 C-6.66859375 6.55261719 -5.9621875 5.85523438 -5.234375 5.13671875 C-3.49401297 3.41987512 -1.74915019 1.70788168 0 0 Z " fill="#1E99F3" transform="translate(23,20)"/>
<path d="M0 0 C3.15204981 1.39347376 5.26171773 3.02485079 7.671875 5.4765625 C8.66767578 6.48203125 8.66767578 6.48203125 9.68359375 7.5078125 C10.36550781 8.20648438 11.04742187 8.90515625 11.75 9.625 C12.44738281 10.33140625 13.14476563 11.0378125 13.86328125 11.765625 C15.58012488 13.50598703 17.29211832 15.25084981 19 17 C18.34 18.32 17.68 19.64 17 21 C12.02642301 19.01286647 9.05215593 14.90616922 5.53515625 11.01953125 C3.21884303 8.77741424 3.21884303 8.77741424 0.546875 8.8515625 C-2.92800765 10.41845744 -5.25026491 12.82237943 -7.8125 15.5625 C-8.31458984 16.08263672 -8.81667969 16.60277344 -9.33398438 17.13867188 C-10.56529127 18.4168857 -11.7839407 19.70727147 -13 21 C-14.32 20.34 -15.64 19.68 -17 19 C-15.60652624 15.84795019 -13.97514921 13.73828227 -11.5234375 11.328125 C-10.51796875 10.33232422 -10.51796875 10.33232422 -9.4921875 9.31640625 C-8.79351562 8.63449219 -8.09484375 7.95257812 -7.375 7.25 C-6.66859375 6.55261719 -5.9621875 5.85523438 -5.234375 5.13671875 C-3.49401297 3.41987512 -1.74915019 1.70788168 0 0 Z " fill="#2097F3" transform="translate(23,7)"/>
</svg>
